<svg width="46" height="44" viewBox="0 0 46 44" fill="none" xmlns="http://www.w3.org/2000/svg">
<path d="M42.6023 0C43.6041 2.00424e-05 44.4209 0.309804 45.0526 0.929352C45.6842 1.52755 46 2.30738 46 3.26875C46 3.65331 45.9347 4.04856 45.804 4.45448C45.6733 4.86039 45.4446 5.29839 45.1179 5.76839L21.3665 42.1733C20.5388 43.3911 19.3735 44 17.8707 44C16.4986 44 15.3224 43.4018 14.3423 42.2054L1.04545 25.6373C0.6752 25.1887 0.402936 24.7613 0.228693 24.3554C0.0762311 23.9281 0 23.5115 0 23.1056C0 22.1015 0.326705 21.2896 0.980114 20.6701C1.63351 20.0505 2.4612 19.7407 3.46307 19.7407C4.63916 19.7407 5.63023 20.2535 6.43608 21.279L17.7401 35.8922L39.4986 1.82666C39.956 1.14302 40.4134 0.672973 40.8707 0.416606C41.3281 0.138897 41.9053 0 42.6023 0Z" fill="#A0191E"/>
</svg>
