<svg width="28" height="28" viewBox="0 0 28 28" fill="none" xmlns="http://www.w3.org/2000/svg">
<path d="M21.5 14.8349H20.7067L18.3733 17.1682H20.6017L22.6667 19.5016H6.33333L8.41 17.1682H10.8017L8.46833 14.8349H7.5L4 18.3349V23.0016C4 23.6204 4.24583 24.2139 4.68342 24.6515C5.121 25.0891 5.71449 25.3349 6.33333 25.3349H22.6667C23.2855 25.3349 23.879 25.0891 24.3166 24.6515C24.7542 24.2139 25 23.6204 25 23.0016V18.3349L21.5 14.8349ZM20.3333 8.94323L14.5583 14.7182L10.4167 10.5882L16.2033 4.81323L20.3333 8.94323ZM15.3867 2.3399L7.955 9.77157C7.84685 9.8795 7.76104 10.0077 7.7025 10.1488C7.64395 10.29 7.61382 10.4413 7.61382 10.5941C7.61382 10.7469 7.64395 10.8982 7.7025 11.0393C7.76104 11.1804 7.84685 11.3086 7.955 11.4166L13.73 17.1682C14.185 17.6466 14.92 17.6466 15.375 17.1682L22.795 9.77157C22.9032 9.66363 22.989 9.53543 23.0475 9.39429C23.1061 9.25316 23.1362 9.10186 23.1362 8.94907C23.1362 8.79627 23.1061 8.64497 23.0475 8.50384C22.989 8.3627 22.9032 8.2345 22.795 8.12657L17.02 2.35157C16.9147 2.24143 16.7884 2.15357 16.6486 2.09318C16.5087 2.03279 16.3581 2.00112 16.2058 2.00003C16.0535 1.99894 15.9025 2.02846 15.7617 2.08685C15.621 2.14523 15.4935 2.23128 15.3867 2.3399Z" fill="black"/>
</svg>
