<svg width="6" height="6" viewBox="0 0 6 6" fill="none" xmlns="http://www.w3.org/2000/svg">
<path d="M5.55682 0C5.68749 2.73306e-06 5.79404 0.042246 5.87642 0.12673C5.9588 0.208302 6 0.314643 6 0.445739C6 0.498178 5.99148 0.552077 5.97443 0.607429C5.95739 0.66278 5.92755 0.722508 5.88494 0.786599L2.78693 5.75091C2.67898 5.91697 2.52698 6 2.33097 6C2.15199 6 1.99858 5.91842 1.87074 5.75528L0.136364 3.49599C0.0880695 3.43482 0.0525569 3.37655 0.0298295 3.32119C0.00994318 3.26293 0 3.20612 0 3.15076C0 3.01384 0.0426136 2.90313 0.127841 2.81865C0.213067 2.73416 0.321026 2.69192 0.451705 2.69192C0.605108 2.69192 0.734378 2.76184 0.839489 2.90168L2.31392 4.89439L5.15199 0.24909C5.21165 0.155866 5.27131 0.0917691 5.33097 0.0568099C5.39062 0.0189405 5.46591 0 5.55682 0Z" fill="white"/>
</svg>
